<?xml version="1.0" encoding="UTF-8"?>
<svg width="72px" height="29px" viewBox="0 0 72 29" version="1.1" xmlns="http://www.w3.org/2000/svg" xmlns:xlink="http://www.w3.org/1999/xlink">
    <!-- Generator: Sketch 56.3 (81716) - https://sketch.com -->
    <title>ooba-logo</title>
    <desc>Created with Sketch.</desc>
    <g id="Welcome" stroke="none" stroke-width="1" fill="none" fill-rule="evenodd">
        <g id="Desktop-HD" transform="translate(-10.000000, -22.000000)" fill-rule="nonzero">
            <g id="ooba-logo" transform="translate(10.000000, 22.000000)">
                <path d="M11.97536,0.15392 L9.72448,0.15392 C4.45056,0.15392 0.15984,4.4448 0.15984,9.7184 L0.15984,10.74176 C0.15984,13.4416 1.3096,16.0288 3.31424,17.84 C3.88018896,18.3454187 4.74806986,18.2988978 5.25674746,17.7358762 C5.76542505,17.1728546 5.7239155,16.3047196 5.16384,15.7928 C3.73595985,14.5014848 2.92042748,12.6667839 2.91856,10.7416 L2.91856,9.71824 C2.91856,5.9656 5.97168,2.91264 9.72448,2.91264 L11.97536,2.91264 C15.728,2.91264 18.78096,5.96544 18.78096,9.71824 L18.78096,10.7416 C18.7793343,12.6678824 17.9630121,14.5036047 16.53376,15.79504 C16.1102422,16.1776266 15.9660478,16.781511 16.1710252,17.3141686 C16.3760026,17.8468262 16.8878237,18.1982406 17.45856,18.1982406 C17.799893,18.1985659 18.1291404,18.0718972 18.38224,17.84288 C20.38896,16.03168 21.53968,13.4432 21.53968,10.7416 L21.53968,9.71824 C21.53968,4.44464 17.24912,0.15392 11.97536,0.15392" id="Path" fill="#2196F3"></path>
                <polygon id="Path" fill="#2196F3" points="14.09328 9.28512 7.6064 9.28512 10.8496 12.52864"></polygon>
                <path d="M54.27136,14.88784 C54.39072,15.33024 54.45056,15.81808 54.45056,16.35168 L54.45056,16.87824 C54.45056,17.21504 54.39248,17.57664 54.27664,17.96304 C54.1608,18.34896 53.97136,18.70704 53.70784,19.03696 C53.44464,19.36688 53.10256,19.6424 52.68112,19.86368 C52.26,20.0848 51.744,20.19536 51.13328,20.19536 L40.73968,20.19536 C40.54288,20.19536 40.36048,20.16016 40.192,20.09008 C40.0286911,20.0231853 39.8801574,19.9247791 39.75488,19.80048 C39.6305009,19.6753002 39.5321304,19.5267385 39.46544,19.36336 C39.39504,19.19488 39.36,19.01232 39.36,18.81584 L39.36,6.26336 C39.36,6.07392 39.3952,5.89488 39.4656,5.7264 C39.533078,5.5619117 39.6312521,5.41177256 39.75488,5.284 C39.8789372,5.15694696 40.0277001,5.05664636 40.192,4.98928 C40.36048,4.91888 40.54304,4.884 40.73952,4.884 L49.90112,4.884 C50.23808,4.884 50.59984,4.94352 50.98576,5.06288 C51.372,5.18224 51.73168,5.37376 52.06528,5.63696 C52.39872,5.90016 52.67584,6.2424 52.89712,6.66352 C53.11824,7.0848 53.2288,7.6008 53.2288,8.21168 L53.2288,8.93808 C53.2288,9.42256 53.14816,9.94384 52.98672,10.50208 C52.82512,11.06 52.56528,11.58832 52.20752,12.08672 C52.5222908,12.2809712 52.8137422,12.5106858 53.07616,12.77136 C53.34656,13.03792 53.58336,13.34688 53.78688,13.69792 C53.99056,14.04896 54.152,14.4456 54.27136,14.88784 Z M51.71248,16.85712 L51.71248,16.85728 L51.71248,16.35168 C51.71248,15.9936 51.65632,15.67248 51.54384,15.38816 C51.43152,15.10384 51.2736,14.85984 51.07008,14.65616 C50.8664,14.45264 50.6208,14.29648 50.3328,14.18768 C50.04496,14.07888 49.72208,14.02448 49.36416,14.02448 L42.09808,14.06384 L42.09808,17.45744 L51.13328,17.45744 C51.18224,17.45744 51.24208,17.45392 51.31216,17.44672 C51.38256,17.43984 51.44576,17.41872 51.50192,17.38352 C51.55808,17.34864 51.6072,17.2888 51.64928,17.2048 C51.6912,17.12032 51.71248,17.00448 51.71248,16.85712 Z M42.09808,7.62192 L42.09792,7.62176 L42.09792,11.30464 L48.13216,11.2656 C48.49008,11.2656 48.81296,11.21104 49.10096,11.1024 C49.38864,10.99328 49.6344,10.83728 49.83792,10.6336 C50.0416,10.42976 50.19776,10.18592 50.30672,9.90176 C50.41552,9.61744 50.46992,9.29632 50.46992,8.93808 L50.46992,8.21168 C50.46992,7.8184 50.28032,7.62192 49.90112,7.62192 L42.09808,7.62192 Z M35.75216,10.05632 C36.05408,10.43872 36.27328,10.85472 36.4104,11.304 C36.5472,11.75328 36.61568,12.17104 36.61568,12.55728 L36.61568,16.264 C36.61568,16.7344 36.55584,17.15728 36.43648,17.5328 C36.31728,17.90864 36.15936,18.2384 35.96288,18.52288 C35.76608,18.80704 35.53792,19.04928 35.27808,19.24928 C35.0266421,19.4445309 34.7526839,19.6089058 34.46208,19.73888 C34.1852251,19.8630081 33.8956793,19.9566263 33.59856,20.01808 C33.30736,20.07776 33.03168,20.10752 32.77184,20.10752 L27.83312,20.10752 C27.45408,20.10752 27.03984,20.0408 26.59056,19.90752 C26.14112,19.77408 25.72528,19.55488 25.34272,19.24928 C24.96,18.944 24.64064,18.5472 24.38432,18.05936 C24.12832,17.57152 24,16.97296 24,16.264 L24,12.55728 C24,11.85504 24.12832,11.26016 24.38432,10.77232 C24.64064,10.28432 24.96,9.88768 25.34272,9.5824 C25.72528,9.2768 26.14112,9.0576 26.59072,8.92432 C27.03984,8.79072 27.45408,8.724 27.83312,8.724 L32.77184,8.724 C33.47392,8.724 34.07072,8.8504 34.56208,9.1032 C35.0536,9.356 35.4504,9.67344 35.75216,10.05616 L35.75216,10.05632 Z M33.8776,16.264 L33.8776,12.5784 C33.8776,12.19904 33.78288,11.9184 33.59328,11.73584 C33.40384,11.55328 33.13008,11.46208 32.77184,11.46208 L27.85408,11.46208 C27.48928,11.46208 27.21184,11.55504 27.0224,11.74112 C26.83264,11.92704 26.73792,12.19904 26.73792,12.55712 L26.73792,16.264 C26.73792,16.62192 26.83264,16.89568 27.0224,17.08528 C27.21184,17.27472 27.48928,17.36976 27.85408,17.36976 L32.77184,17.36976 C33.14416,17.36976 33.42144,17.27472 33.60384,17.08528 C33.7864,16.89568 33.8776,16.62192 33.8776,16.264 L33.8776,16.264 Z M65.98768,4.884 C69.2952,4.884 71.97696,7.5656 71.97696,10.87312 L71.97696,18.88928 C71.97696,19.2468048 71.8349119,19.5896817 71.5820737,19.84246 C71.3292354,20.0952382 70.9863248,20.23712 70.6288,20.23712 C69.8844085,20.23712 69.28096,19.6336715 69.28096,18.88928 L69.28096,16.26624 L59.54608,16.26624 L59.54608,18.88928 C59.54608,19.6336715 58.9426315,20.23712 58.19824,20.23712 C57.4538485,20.23712 56.8504,19.6336715 56.8504,18.88928 L56.8504,10.87312 C56.8504,7.56544 59.53184,4.884 62.83952,4.884 L65.98768,4.884 Z M69.28096,13.5704 L69.28096,10.87312 C69.28096,9.05424 67.80656,7.57968 65.98768,7.57968 L62.83952,7.57968 C61.02064,7.57968 59.54608,9.05424 59.54608,10.87312 L59.54608,13.5704 L69.28096,13.5704 Z" id="Shape" fill="#E8E8E8"></path>
                <path d="M13.43888,17.38992 C12.9580936,17.4947074 12.4674331,17.5474908 11.97536,17.54736 L9.72448,17.54736 C9.22848,17.54736 8.73392,17.49376 8.2552,17.38848 C7.5104,17.22624 6.77552,17.69568 6.61184,18.43936 C6.4482412,19.1833726 6.91860488,19.9191799 7.66256,20.08304 C8.33983162,20.2314077 9.0311476,20.3061881 9.72448,20.3060801 L11.97536,20.3060801 C12.66704,20.3060801 13.35776,20.23152 14.02816,20.0848 C14.3855758,20.0066745 14.6973133,19.7897565 14.8947849,19.4817717 C15.0922564,19.1737869 15.1592839,18.7999674 15.08112,18.44256 C14.91856,17.6984 14.1832,17.2272 13.43888,17.38976" id="Path" fill="#E8E8E8"></path>
                <path d="M13.272,21.85344 C13.02896,21.86944 12.78112,21.87744 12.53568,21.87744 L9.16416,21.87744 C8.90464,21.87744 8.64416,21.86864 8.38976,21.85072 C7.62944,21.79632 6.97024,22.37024 6.91696,23.13024 C6.89136698,23.495179 7.01179618,23.8553375 7.2517537,24.1314822 C7.49171122,24.4076269 7.83154029,24.5771366 8.19648,24.60272 C8.51488,24.62512 8.84064,24.63632 9.16416,24.63632 L12.53568,24.63632 C12.84208,24.63632 13.15168,24.62608 13.4552,24.60592 C13.8202385,24.5816887 14.1606941,24.4134175 14.4016493,24.1381343 C14.6426046,23.8628512 14.7643157,23.5031129 14.74,23.13808 C14.68944,22.37808 14.03408,21.80032 13.272,21.85328" id="Path" fill="#E1E1E1"></path>
                <path d="M11.3888,26.1376 L10.34,26.1376 C9.97412855,26.1375576 9.62322538,26.2828587 9.36448519,26.5415389 C9.105745,26.8002191 8.96036243,27.1510885 8.96032,27.51696 C8.96032,28.27856 9.57792,28.89632 10.34,28.89632 L11.38864,28.89632 C12.15024,28.89632 12.768,28.27872 12.768,27.51712 C12.768,26.75536 12.1504,26.1376 11.3888,26.1376" id="Path" fill="#D4D4D4"></path>
            </g>
        </g>
    </g>
</svg>