<?xml version="1.0" encoding="UTF-8"?>
<svg width="1200px" height="476px" viewBox="0 0 1200 476" version="1.1" xmlns="http://www.w3.org/2000/svg" xmlns:xlink="http://www.w3.org/1999/xlink">
    <!-- Generator: Sketch 46 (44423) - http://www.bohemiancoding.com/sketch -->
    <title>ooba_logo_regular_1200x476</title>
    <desc>Created with Sketch.</desc>
    <defs></defs>
    <g id="Sketches" stroke="none" stroke-width="1" fill="none" fill-rule="evenodd">
        <g id="ooba_logo_regular_1200x476">
            <g id="Logo">
                <path d="M198.285751,0 L160.512077,0 C72.0057059,0 0,71.6365611 0,159.685356 L0,176.769279 C0,221.849187 19.2938564,265.048367 52.9356136,295.285874 C62.4224348,303.814402 77.0558275,303.069787 85.6283028,293.635439 C94.2007781,284.197253 93.4561841,269.635042 83.9732209,261.106514 C60.030475,239.589446 46.2959961,208.845294 46.2959961,176.769279 L46.2959961,159.685356 C46.2959961,97.0302328 97.5340898,46.0586548 160.512077,46.0586548 L198.285751,46.0586548 C261.263738,46.0586548 312.497974,97.0302328 312.497974,159.685356 L312.497974,176.769279 C312.497974,208.864485 298.755779,239.620152 274.786027,261.141058 C265.299206,269.665747 264.546896,284.227959 273.115513,293.669983 C277.687243,298.705729 283.983498,301.265823 290.30676,301.265823 C295.835273,301.265823 301.383077,299.304492 305.808202,295.331933 C339.484681,265.090588 358.79397,221.876055 358.79397,176.769279 L358.79397,159.685356 C358.79397,71.6365611 286.792122,0 198.285751,0" id="Combined-Shape" fill="#F5754E"></path>
                <polygon id="Fill-16" fill="#F5AA93" points="232.160804 150.632911 123.61809 150.632911 177.883677 204.860759"></polygon>
                <path d="M861.247,278.028861 C861.247,280.486668 860.893447,282.419172 860.190184,283.826373 C859.48692,285.229739 858.664525,286.226665 857.726841,286.809484 C856.789157,287.396137 855.732341,287.748896 854.556392,287.863926 C853.384287,287.98279 852.385115,288.040305 851.566563,288.040305 L700.52639,288.040305 L700.52639,231.437877 L821.991081,230.782206 C827.974582,230.782206 833.373952,231.690943 838.185348,233.504583 C842.996744,235.318222 847.104877,237.925569 850.509747,241.318954 C853.910774,244.716173 856.550893,248.784401 858.430104,253.527471 C860.309316,258.270541 861.247,263.627105 861.247,269.597162 L861.247,278.028861 Z M700.52639,123.992189 L830.968254,123.992189 C837.305309,123.992189 840.475757,127.270544 840.475757,133.831088 L840.475757,145.947582 C840.475757,151.921473 839.564974,157.278037 837.74725,162.021107 C835.925683,166.760343 833.316308,170.82857 829.911438,174.22579 C826.510412,177.623009 822.402279,180.226521 817.590883,182.043995 C812.779487,183.857635 807.380117,184.766372 801.396615,184.766372 L700.52639,185.418209 L700.52639,123.992189 Z M884.043486,209.881255 C879.524156,205.429594 874.685859,201.625935 869.52091,198.462611 C875.504411,190.149776 879.846965,181.338478 882.548572,172.032551 C885.246335,162.72279 886.595217,154.026522 886.595217,145.947582 L886.595217,133.831088 C886.595217,123.643265 884.746749,115.035187 881.049814,108.010688 C877.352879,100.986189 872.718259,95.2768671 867.145956,90.8865555 C861.569809,86.4962439 855.555564,83.3022442 849.099378,81.3122252 C842.647034,79.3222062 836.602046,78.3291139 830.968254,78.3291139 L677.818291,78.3291139 C674.532554,78.3291139 671.481237,78.9119326 668.664341,80.0852386 C665.847446,81.2547102 663.414847,82.8958049 661.358859,85.0008539 C659.306714,87.1097372 657.692668,89.5675448 656.520562,92.3781111 C655.344614,95.1886774 654.75664,98.1756231 654.75664,101.335114 L654.75664,310.697381 C654.75664,313.975735 655.344614,317.020196 656.520562,319.830762 C657.692668,322.641329 659.306714,325.072296 661.358859,327.11983 C663.414847,329.167364 665.847446,330.777784 668.664341,331.95109 C671.481237,333.120562 674.532554,333.707215 677.818291,333.707215 L851.566563,333.707215 C861.773486,333.707215 870.40095,331.8629 877.441267,328.174272 C884.485428,324.485643 890.203764,319.888277 894.603963,314.386009 C899.008004,308.883741 902.17461,302.90985 904.111466,296.472004 C906.048321,290.030324 907.016749,283.998918 907.016749,278.381619 L907.016749,269.597162 C907.016749,260.697674 906.017578,252.561219 904.023077,245.183962 C902.028577,237.806704 899.330813,231.19248 895.925944,225.337453 C892.521074,219.482426 888.562817,214.329082 884.043486,209.881255 Z" id="Combined-Shape" fill="#4F359B"></path>
                <path d="M1047.25355,78.3291139 L1099.87915,78.3291139 C1155.17178,78.3291139 1200,123.052778 1200,178.221165 L1200,311.924367 C1200,324.339938 1189.91221,334.405063 1177.46484,334.405063 C1165.0213,334.405063 1154.93351,324.339938 1154.93351,311.924367 L1154.93351,268.174624 L992.199188,268.174624 L992.199188,311.924367 C992.199188,324.339938 982.111397,334.405063 969.667866,334.405063 C957.224336,334.405063 947.136545,324.339938 947.136545,311.924367 L947.136545,268.174624 L947.136545,223.209398 L947.136545,178.221165 C947.136545,123.052778 991.960924,78.3291139 1047.25355,78.3291139 Z M1154.93351,223.209398 L1154.93351,178.221165 C1154.93351,147.88392 1130.28472,123.290506 1099.87915,123.290506 L1047.25355,123.290506 C1016.84799,123.290506 992.199188,147.88392 992.199188,178.221165 L992.199188,223.209398 L1154.93351,223.209398 Z" id="Combined-Shape" fill="#4F359B"></path>
                <path d="M574.551274,148.69937 C582.76754,152.917137 589.400503,158.212351 594.44632,164.596516 C599.492137,170.976846 603.158328,177.913155 605.448737,185.409277 C607.735303,192.901564 608.880508,199.868548 608.880508,206.310228 L608.880508,268.135018 C608.880508,275.980064 607.881336,283.035237 605.886836,289.300538 C603.892335,295.565838 601.252216,301.068107 597.966479,305.811177 C594.680741,310.550413 590.864674,314.5918 586.52212,317.92767 C582.179566,321.267374 577.633335,323.989751 572.879583,326.0948 C568.129675,328.203683 563.314436,329.756588 558.445395,330.749681 C553.576355,331.746607 548.968636,332.241236 544.626082,332.241236 L462.067599,332.241236 C455.730545,332.241236 448.805516,331.12928 441.296357,328.905366 C433.783354,326.681453 426.831425,323.023499 420.436726,317.92767 C414.038184,312.835675 408.700302,306.217616 404.415392,298.081161 C400.134326,289.944706 397.98995,279.960102 397.98995,268.135018 L397.98995,206.310228 C397.98995,194.600174 400.134326,184.676919 404.415392,176.540464 C408.700302,168.400174 414.038184,161.785949 420.436726,156.693955 C426.831425,151.598126 433.783354,147.940172 441.296357,145.716259 C448.805516,143.488511 455.730545,142.376554 462.067599,142.376554 L544.626082,142.376554 C556.362506,142.376554 566.338851,144.485438 574.551274,148.69937 Z M563.110758,268.135018 L563.110758,206.662986 C563.110758,200.336336 561.527455,195.654616 558.357007,192.610155 C555.190401,189.565694 550.613426,188.043464 544.626082,188.043464 L462.417309,188.043464 C456.318519,188.043464 451.680056,189.596369 448.513451,192.698345 C445.343002,195.80032 443.759699,200.336336 443.759699,206.310228 L443.759699,268.135018 C443.759699,274.105075 445.343002,278.671766 448.513451,281.835091 C451.680056,284.994581 456.318519,286.578161 462.417309,286.578161 L544.626082,286.578161 C550.847847,286.578161 555.482467,284.994581 558.533783,281.835091 C561.5851,278.671766 563.110758,274.105075 563.110758,268.135018 Z" id="Combined-Shape" fill="#4F359B"></path>
                <path d="M219.431017,286.749253 C211.50613,288.454869 203.325478,289.322705 195.129556,289.322705 L157.753557,289.322705 C149.515644,289.322705 141.304453,288.447356 133.356661,286.726712 C120.988339,284.074367 108.784165,291.745882 106.066188,303.899334 C103.352029,316.064057 111.162395,328.086019 123.515447,330.760906 C134.692745,333.176569 146.20979,334.405063 157.753557,334.405063 L195.129556,334.405063 C206.616062,334.405063 218.083481,333.18784 229.218788,330.790961 C241.579475,328.131102 249.40511,316.112896 246.702403,303.95193 C244.003513,291.790964 231.791704,284.089394 219.431017,286.749253" id="Fill-10" fill="#7B68B4"></path>
                <path d="M216.848654,361.621673 C212.824917,361.8824 208.721237,362.012763 204.655625,362.012763 L148.825787,362.012763 C144.527963,362.012763 140.214912,361.867501 136.000836,361.576976 C123.411904,360.694229 112.497944,369.994741 111.614777,382.308516 C110.73161,394.618566 120.218039,405.300934 132.803164,406.165058 C138.075517,406.530076 143.469685,406.708861 148.825787,406.708861 L204.655625,406.708861 C209.730026,406.708861 214.853916,406.544975 219.882636,406.217204 C232.467762,405.397775 241.992257,394.752655 241.154772,382.435155 C240.321093,370.12138 229.46804,360.761273 216.848654,361.621673" id="Fill-12" fill="#A79ACD"></path>
                <path d="M188.118641,430.810127 L170.679152,430.810127 C158.010483,430.810127 147.738693,440.928892 147.738693,453.405063 C147.738693,465.881234 158.010483,476 170.679152,476 L188.118641,476 C200.783486,476 211.055276,465.881234 211.055276,453.405063 C211.055276,440.928892 200.783486,430.810127 188.118641,430.810127" id="Fill-14" fill="#D3CCE6"></path>
            </g>
        </g>
    </g>
</svg>